<?xml version="1.0" encoding="utf-8"?>
<svg version="1.1" id="Layer_1" xmlns="http://www.w3.org/2000/svg" xmlns:xlink="http://www.w3.org/1999/xlink" x="0px" y="0px"
	  height="54px" viewBox="0 0 32 32" style="enable-background:new 0 0 250 54;" xml:space="preserve">
<path d="M52.3,25.8h-7v12.1h-4.6V7.3h11.6c6,0,9.8,4,9.8,9.3S58.2,25.8,52.3,25.8z M52,11.4h-6.7v10.2H52c3.3,0,5.4-1.9,5.4-5.1
	S55.3,11.4,52,11.4z"/>
<rect x="0" y="7.1" fill="#FF6633" width="45.9" height="45.9"/>
<polygon fill="#FFFFFF" points="17.1,38.1 13.8,38.1 13.8,33.1 18.3,27.6 13.8,27.6 13.8,20.9 5.7,20.9 13.8,10.9 13.8,7.1 17.1,7.1 
	17.1,12.1 12.6,17.6 17.1,17.6 17.1,24.3 25.2,24.3 17.1,34.3 "/>
</svg>
